#N canvas 267 97 756 416 10;
#X declare -lib hivemindgone;
#X obj 5 164 dac~;
#X obj 226 19 tabwrite~ array1;
#N canvas 568 87 674 331 (subpatch) 0;
#X array array1 2048 float 0;
#X coords 0 1 2047 -1 200 140 1;
#X restore 147 41 graph;
#X obj 226 -110 bng 15 250 50 0 empty empty empty 17 7 0 10 -262144
-1 -1;
#X msg 152 -29 0;
#X obj 226 0 metro 50;
#X obj 5 -199 declare -lib hivemindgone;
#X msg 76 -110 root C;
#X obj 5 -76 scaleroute;
#X obj 5 120 pannum~ 0;
#X obj 62 -37 s num;
#X obj 152 -127 loadbang;
#X msg 76 -93 root eb;
#X obj 8 -148 hsl 128 15 0 127 0 0 empty empty empty -2 -8 0 10 -262144
-1 -1 0 1;
#X floatatom 5 -118 5 0 0 0 - - -;
#X floatatom 62 -56 5 0 0 0 - - -;
#X obj 56 63 r num;
#X obj 5 2 wavegen~ sine 250 100 0.1;
#X obj 56 101 line~ 0 50;
#X msg 56 82 \$1 100;
#X text 386 -199 Group 1 Hivemind Externals;
#X text 386 -186 --------------------------;
#X text 385 -158 [scaleroute] - Can be set with a key using "root".
Takes in MIDI pitch numbers which are passed through to the left outlet.
A dissonance class is assigned based on the key and passed out the
right outlet.;
#X text 385 -105 ---- 0 dissonance class: perfect intervals (Unison
\, P4 \, P5);
#X text 385 -91 ---- 1 dissonance class: imperfect consonances (m/M3
\, m/M6);
#X text 385 -76 ---- 2 dissonance class: soft dissonances (m7 \, M2)
;
#X text 385 -63 ---- 3 dissonance class: sharp dissonances (m2 \, M7
\, A4);
#X text 384 7 [pannum~] - Takes a signal in the left inlet and pans
the signal according to the dissonance signal passed in the right inlet.
The dissonance signal contanins a continuous value in the range [0
\, 3] corresponding to a linear panning scheme from right to left channels.
;
#X text 385 -31 [wavegen~] - A wave generator with additive synthesis
and delay flanging. See its help file for details and examples.;
#X text 4 -165 MIDI (0 - 127);
#X connect 3 0 5 0;
#X connect 4 0 17 2;
#X connect 4 0 17 1;
#X connect 5 0 1 0;
#X connect 7 0 8 0;
#X connect 8 0 17 0;
#X connect 8 1 15 0;
#X connect 9 0 0 0;
#X connect 9 1 0 1;
#X connect 11 0 4 0;
#X connect 11 0 7 0;
#X connect 11 0 3 0;
#X connect 12 0 8 0;
#X connect 13 0 14 0;
#X connect 14 0 8 0;
#X connect 15 0 10 0;
#X connect 16 0 19 0;
#X connect 17 0 1 0;
#X connect 17 0 9 0;
#X connect 18 0 9 1;
#X connect 19 0 18 0;
